<svg xmlns="http://www.w3.org/2000/svg" viewBox="0 0 113.38 113.39"><defs><style>.cls-1{fill:#323232;}.cls-2{fill:#ffe06a;}</style></defs><g id="Layer_2" data-name="Layer 2"><g id="editing_icons_fill" data-name="editing icons fill"><path class="cls-1" d="M113.38,56.69A56.69,56.69,0,1,1,56.69,0,56.7,56.7,0,0,1,113.38,56.69Z"/><path class="cls-2" d="M29.1,42.32c-1.79,0-3.19.07-4.72.13V71c1.28.06,2.68.06,4.34.06,9,0,15-5.22,15-14.91C43.75,46.91,37.7,42.32,29.1,42.32ZM56.69,0a56.7,56.7,0,1,0,56.69,56.69A56.69,56.69,0,0,0,56.69,0ZM29,77.75c-4,0-9.87,0-11.91-.12-.26,0-.45-.2-.45-.58V36.33c0-.32.07-.44.45-.51,1.85-.06,6.18-.19,12-.19,15,0,22.5,8.48,22.5,20.33C51.66,71.51,39.8,77.75,29,77.75Zm63.53-.63c-.19.38-.25.51-.7.51h-7c-.44,0-.57-.2-.7-.58-3.69-14.21-4.78-19.88-5.41-23h-.07c-1.46,6.37-3.06,12.49-6,23.07a.64.64,0,0,1-.7.51H65c-.63,0-.7-.13-.83-.51l-8.28-30.4c-.13-.32.06-.51.45-.51h7c.31,0,.44.06.51.38,3.82,15,4.77,21,5.22,23.58h.13c.51-2.23,1.59-8,5.8-23.45.06-.38.12-.51.57-.51h7.33a.45.45,0,0,1,.51.38c4,15.55,4.84,21.22,5.35,23.77h.13c.76-3.82,1.72-10.19,5.42-23.77a.51.51,0,0,1,.57-.38h6.43c.26,0,.51.13.39.45ZM29.1,42.32c-1.79,0-3.19.07-4.72.13V71c1.28.06,2.68.06,4.34.06,9,0,15-5.22,15-14.91C43.75,46.91,37.7,42.32,29.1,42.32Zm0,0c-1.79,0-3.19.07-4.72.13V71c1.28.06,2.68.06,4.34.06,9,0,15-5.22,15-14.91C43.75,46.91,37.7,42.32,29.1,42.32Z"/></g></g></svg>