<svg xmlns="http://www.w3.org/2000/svg" viewBox="0 0 113.38 113.39"><defs><style>.cls-1{fill:#323232;}.cls-2{fill:#ffe06a;}</style></defs><g id="Layer_2" data-name="Layer 2"><g id="editing_icons_fill" data-name="editing icons fill"><path class="cls-1" d="M113.38,56.7A56.69,56.69,0,1,1,56.69,0,56.69,56.69,0,0,1,113.38,56.7Z"/><path class="cls-2" d="M69.69,52.69c-7,0-12.25,4.48-12.25,12.1,0,8.55,5.1,12.09,11.38,12.09a14.62,14.62,0,0,0,4.56-.63v-23A10.51,10.51,0,0,0,69.69,52.69ZM56.69,0a56.7,56.7,0,1,0,56.69,56.7A56.7,56.7,0,0,0,56.69,0ZM39.77,83.55c0,.55-.16.71-.63.71H30.9c-.47,0-.63-.24-.63-.71V33.3c0-.55.23-.63.63-.63h8.24c.47,0,.63.16.63.63ZM82.64,82A37.19,37.19,0,0,1,67.8,85c-11.38,0-20.1-6.59-20.1-19.78,0-11.39,8.48-20.5,22.3-20.5a26.78,26.78,0,0,1,3.38.24V28.9c0-.39.15-.55.47-.55h8.56c.39,0,.39.16.39.47V76.25c0,1.57.16,3.61.31,5A.61.61,0,0,1,82.64,82ZM57.44,64.79c0,8.55,5.1,12.09,11.38,12.09a14.62,14.62,0,0,0,4.56-.63v-23a10.51,10.51,0,0,0-3.69-.55C62.7,52.69,57.44,57.17,57.44,64.79Zm12.25-12.1c-7,0-12.25,4.48-12.25,12.1,0,8.55,5.1,12.09,11.38,12.09a14.62,14.62,0,0,0,4.56-.63v-23A10.51,10.51,0,0,0,69.69,52.69Z"/></g></g></svg>