<svg xmlns="http://www.w3.org/2000/svg" viewBox="0 0 113.39 113.39"><defs><style>.cls-1{fill:#323232;}.cls-2{fill:#ffe06a;}</style></defs><g id="Layer_2" data-name="Layer 2"><g id="editing_icons_fill" data-name="editing icons fill"><path class="cls-1" d="M113.39,56.7A56.7,56.7,0,1,1,56.69,0,56.7,56.7,0,0,1,113.39,56.7Z"/><path class="cls-2" d="M41.31,37.38c-3,0-5.42.09-6.36.18v20c1.46.08,2.58.08,5.42.08,7.22,0,13.33-2.41,13.33-10.24C53.7,41.08,49.23,37.38,41.31,37.38ZM56.69,0a56.7,56.7,0,1,0,56.7,56.7A56.7,56.7,0,0,0,56.69,0ZM40.37,66.72H35V84.36c0,.43-.18.68-.69.68h-9c-.44,0-.69-.17-.69-.6V29.3c0-.43.17-.69.6-.69,3.27-.09,9.63-.26,15.91-.26,16.69,0,22.89,9.29,22.89,18.76C63.94,60.78,53.36,66.72,40.37,66.72ZM95.85,51.49c0,.43-.17.61-.77.61-6.11-.18-11.18,2-13.16,4.55V84.36c0,.51-.26.68-.78.68H72.2c-.61,0-.78-.25-.78-.68V54.68c0-3.7-.08-8.69-.43-11.53,0-.43.09-.52.52-.52h8.08a.85.85,0,0,1,1,.69,19.23,19.23,0,0,1,.86,5.16,18,18,0,0,1,13.77-6.71c.51,0,.68.09.68.6ZM41.31,37.38c-3,0-5.42.09-6.36.18v20c1.46.08,2.58.08,5.42.08,7.22,0,13.33-2.41,13.33-10.24C53.7,41.08,49.23,37.38,41.31,37.38Zm0,0c-3,0-5.42.09-6.36.18v20c1.46.08,2.58.08,5.42.08,7.22,0,13.33-2.41,13.33-10.24C53.7,41.08,49.23,37.38,41.31,37.38Z"/></g></g></svg>