<svg xmlns="http://www.w3.org/2000/svg" viewBox="0 0 113.38 113.39"><defs><style>.cls-1{fill:#323232;}.cls-2{fill:#ffe06a;}</style></defs><g id="Layer_2" data-name="Layer 2"><g id="editing_icons_fill" data-name="editing icons fill"><path class="cls-1" d="M0,56.7a56.69,56.69,0,1,1,56.69,56.69A56.7,56.7,0,0,1,0,56.7Z"/><path class="cls-2" d="M37.13,37.25c-3,0-5.34.08-6.27.17V57.08c1.44.08,2.54.08,5.34.08,7.12,0,13.14-2.37,13.14-10.08C49.34,40.89,44.93,37.25,37.13,37.25ZM56.69,0a56.7,56.7,0,1,0,56.69,56.7A56.7,56.7,0,0,0,56.69,0ZM36.2,66.15H30.86V83.52c0,.42-.17.68-.68.68H21.29c-.43,0-.68-.17-.68-.6V29.28c0-.42.17-.67.59-.67,3.22-.09,9.49-.26,15.68-.26,16.44,0,22.54,9.15,22.54,18.48C59.42,60.3,49,66.15,36.2,66.15ZM79.08,85c-5,0-9.41-.93-12-2.37-.42-.25-.59-.42-.59-.93v-8a.44.44,0,0,1,.67-.42,23.11,23.11,0,0,0,12.12,3.38c4.41,0,6.53-1.52,6.53-3.72s-1.61-3.48-6.87-5.6c-9.23-3.39-12.54-7.2-12.54-13.3,0-6.44,5.26-12.46,15.85-12.46,4.91,0,8.64.68,10.68,1.7a1,1,0,0,1,.5,1v7.46c0,.42-.25.68-.76.51a24.1,24.1,0,0,0-10.59-2.46c-4.49,0-6,1.87-6,3.65s1.27,3.13,6.7,5.25c9.66,3.56,13,7.37,13,13.39C95.77,80,89.5,85,79.08,85ZM37.13,37.25c-3,0-5.34.08-6.27.17V57.08c1.44.08,2.54.08,5.34.08,7.12,0,13.14-2.37,13.14-10.08C49.34,40.89,44.93,37.25,37.13,37.25Zm0,0c-3,0-5.34.08-6.27.17V57.08c1.44.08,2.54.08,5.34.08,7.12,0,13.14-2.37,13.14-10.08C49.34,40.89,44.93,37.25,37.13,37.25Z"/></g></g></svg>