<svg xmlns="http://www.w3.org/2000/svg" viewBox="0 0 113.39 113.39"><defs><style>.cls-1{fill:#323232;}.cls-2{fill:#ffe06a;}</style></defs><g id="Layer_2" data-name="Layer 2"><g id="editing_icons_fill" data-name="editing icons fill"><path class="cls-1" d="M113.39,56.7A56.7,56.7,0,1,1,56.7,0,56.69,56.69,0,0,1,113.39,56.7Z"/><path class="cls-2" d="M82.43,52.9c-6.63,0-11.62,4.24-11.62,11.47,0,8.12,4.84,11.47,10.8,11.47a13.68,13.68,0,0,0,4.32-.6V53.42A10,10,0,0,0,82.43,52.9ZM56.7,0a56.7,56.7,0,1,0,56.69,56.7A56.71,56.71,0,0,0,56.7,0Zm3.16,82.84H50.7a1,1,0,0,1-1.12-.6C46,76.14,42.36,70,38.71,63.55h-.08c-3.35,6.26-6.85,12.59-10.35,18.69a.87.87,0,0,1-.89.6H18.67c-.52,0-.52-.45-.29-.75L33,58.26,18.67,34.58a.41.41,0,0,1,.38-.67h9.08a.81.81,0,0,1,.9.52c3.27,6.18,7,12.29,10.35,18.47h.07c3.28-6.18,6.78-12.29,10.21-18.4a.83.83,0,0,1,.89-.59h8.34c.45,0,.52.3.3.74l-14.08,23,15,24.42C60.46,82.47,60.23,82.76,59.86,82.84Zm34.85-2.16a35.36,35.36,0,0,1-14.07,2.9c-10.8,0-19.07-6.25-19.07-18.76,0-10.8,8.05-19.44,21.15-19.44a25.59,25.59,0,0,1,3.21.22V30.33c0-.37.14-.52.44-.52h8.12c.37,0,.37.15.37.45v45c0,1.49.15,3.43.3,4.77A.58.58,0,0,1,94.71,80.68ZM70.81,64.37c0,8.12,4.84,11.47,10.8,11.47a13.68,13.68,0,0,0,4.32-.6V53.42a10,10,0,0,0-3.5-.52C75.8,52.9,70.81,57.14,70.81,64.37ZM82.43,52.9c-6.63,0-11.62,4.24-11.62,11.47,0,8.12,4.84,11.47,10.8,11.47a13.68,13.68,0,0,0,4.32-.6V53.42A10,10,0,0,0,82.43,52.9Z"/></g></g></svg>