<svg xmlns="http://www.w3.org/2000/svg" viewBox="0 0 113.38 113.39"><defs><style>.cls-1{fill:#323232;}.cls-2{fill:#ffe06a;}</style></defs><g id="Layer_2" data-name="Layer 2"><g id="interests_icons_fill" data-name="interests icons fill"><path class="cls-1" d="M113.38,56.7A56.69,56.69,0,1,1,56.69,0,56.69,56.69,0,0,1,113.38,56.7Z"/><path class="cls-2" d="M56.69,0a56.7,56.7,0,1,0,56.69,56.7A56.7,56.7,0,0,0,56.69,0ZM87.5,27.38c.21,1.37.39,2.59.57,3.81.11.77.21,1.55.33,2.32.35,2.13-.58,3.43-2.71,3.76l-5.64.83a5.07,5.07,0,0,1-.56,0C82.17,34.51,84.79,31,87.5,27.38Zm1.66,19V54l-7.53-7.54ZM57.82,39.89c3.15-4.23,6.31-8.44,9.45-12.67a1.32,1.32,0,0,1,1-.59c3.31-.47,6.61-1,9.92-1.44a1,1,0,0,1,.22,0c-.13.2-.24.38-.36.54q-5.13,6.87-10.27,13.72a1.43,1.43,0,0,1-.81.51c-3.24.5-6.48,1-9.72,1.43a4.43,4.43,0,0,1-.52,0ZM34.93,44.06q5-6.7,10-13.43a1.88,1.88,0,0,1,1.37-.84c3.06-.4,6.11-.87,9.26-1.33a4.49,4.49,0,0,1-.28.46Q50.13,35.86,44.93,42.8a1.11,1.11,0,0,1-.63.45Q39.62,44,35,44.61a2.25,2.25,0,0,1-.39,0C34.71,44.4,34.81,44.22,34.93,44.06ZM24.54,38.34c-.11-.75-.25-1.5-.38-2.25V34.82a3.07,3.07,0,0,1,2.36-2.14c1.5-.24,3-.44,4.52-.66l2.44-.35-8.29,11.1C25,41.19,24.76,39.76,24.54,38.34ZM89.22,84.26a3.6,3.6,0,0,1-3.94,3.94h-56a3.6,3.6,0,0,1-3.94-3.94q0-17.34,0-34.68c0-.43.08-.86.12-1.29l.32-.2a2.28,2.28,0,0,0,.33.62C29.52,52.15,33,55.57,36.37,59a1.35,1.35,0,0,0,1.05.44c3.58,0,7.16,0,10.74,0h.51L35.88,46.66l.16-.23c.18,0,.35,0,.53,0,3.24,0,6.48,0,9.71,0a1.42,1.42,0,0,1,.92.39Q53.32,52.86,59.38,59a1.5,1.5,0,0,0,1.16.48c3.54,0,7.07,0,10.61,0h.59L58.94,46.65l.14-.21c.13,0,.27,0,.4,0,3.09,0,6.18,0,9.27,0a1.39,1.39,0,0,1,.86.39Q75.72,52.88,81.78,59a1.43,1.43,0,0,0,1.16.48c1.84,0,3.69,0,5.53,0h.75Z"/></g></g></svg>