<svg xmlns="http://www.w3.org/2000/svg" viewBox="0 0 113.39 113.39"><defs><style>.cls-1{fill:#323232;}.cls-2{fill:#ffe06a;}</style></defs><g id="Layer_2" data-name="Layer 2"><g id="editing_icons_fill" data-name="editing icons fill"><path class="cls-1" d="M0,56.69a56.7,56.7,0,1,1,56.69,56.7A56.69,56.69,0,0,1,0,56.69Z"/><path class="cls-2" d="M56.69,0a56.7,56.7,0,1,0,56.7,56.69A56.69,56.69,0,0,0,56.69,0ZM32.35,71.75h-6v-12H20.3v12h-6V41.61h6v12h6.08v-12h6ZM53.56,47.57H47.63V71.74H41.54V47.59h-6v-6H53.56ZM80.9,71.11v.63h-6V51.88l-2.09,2c-.58.57-1.15,1.16-1.75,1.73a3,3,0,0,1-4.53,0c-1-1-2-2-3-2.94-.21-.21-.44-.42-.84-.79V71.76h-6a5,5,0,0,1-.08-.59q0-13.19,0-26.37a3,3,0,0,1,4.1-3,4.85,4.85,0,0,1,1.43,1.05c2.18,2.15,4.33,4.32,6.66,6.65.68-.74,1.29-1.45,2-2.11,1.52-1.55,3.08-3.07,4.61-4.62A3.09,3.09,0,0,1,80.91,45Q80.9,58.07,80.9,71.11Zm6.55.7c-2.33,0-3.51-1.17-3.51-3.46q0-12.94,0-25.87v-.87h6V65.76h9.14v6Z"/></g></g></svg>