<svg xmlns="http://www.w3.org/2000/svg" viewBox="0 0 113.38 113.38"><defs><style>.cls-1{fill:#323232;}.cls-2{fill:#ffe06a;}</style></defs><g id="Layer_2" data-name="Layer 2"><g id="social_media_icons_fill" data-name="social media icons fill"><circle class="cls-1" cx="56.69" cy="56.69" r="56.69" transform="translate(-23.48 56.69) rotate(-45)"/><path class="cls-2" d="M56.69,0a56.69,56.69,0,1,0,56.69,56.69A56.69,56.69,0,0,0,56.69,0ZM39,89.18H26.13V46.07H39Zm-6.5-49.45a7.77,7.77,0,0,1,0-15.53,7.77,7.77,0,0,1,0,15.53ZM89.52,89.18H76.84V65.88c-.16-4.91-3.48-8.71-8.4-8.71a9.1,9.1,0,0,0-9.19,8.71v23.3H46.57V46.07H59.25v6a14.67,14.67,0,0,1,12.2-6.49h3.49A14.64,14.64,0,0,1,89.52,60.18Z"/></g></g></svg>