<svg xmlns="http://www.w3.org/2000/svg" viewBox="0 0 113.39 105.05"><defs><style>.cls-1{fill:#323232;}</style></defs><g id="Layer_2" data-name="Layer 2"><g id="pn_icon" data-name="pn icon"><path class="cls-1" d="M56.38,64.25c-.22,0-.33-.14-.33-.4V41.09A8.85,8.85,0,0,0,54.88,36a4.18,4.18,0,0,0-3.63-1.63A8.22,8.22,0,0,0,46.53,36a28.43,28.43,0,0,0-4.86,4.5l-.07-2.73a24.08,24.08,0,0,1,5.09-4.56,9.83,9.83,0,0,1,5.36-1.63,6.15,6.15,0,0,1,5.16,2.26C58.39,35.34,59,37.69,59,40.89v23a.35.35,0,0,1-.4.4Z"/><path class="cls-1" d="M39.61,64.25c-.23,0-.34-.14-.34-.4v-24q0-2.13-.06-4c-.05-1.24-.11-2.31-.2-3.2,0-.35.06-.53.33-.53h1.93a.35.35,0,0,1,.4.4c.13.89.23,2,.3,3.26s.12,2.33.17,3.13l.06.6V63.85a.35.35,0,0,1-.4.4Z"/><path class="cls-1" d="M31.44,18.88q-3.86-4-12-4H8.23c-.51,0-.76.27-.76.83v47.7c0,.55.25.83.76.83h6.93c.5,0,.75-.28.75-.83V46.76h3.7q7.83,0,11.75-4.07t3.92-11.83Q35.28,22.88,31.44,18.88ZM25,37.27c-1.2,1.36-3.09,2-5.65,2H15.91V22.35h3.55q3.76,0,5.57,2T26.84,31C26.84,33.83,26.24,35.91,25,37.27Z"/><polyline class="cls-1" points="0 3.7 28.19 3.7 31.91 7.41 3.74 7.41"/><polygon class="cls-1" points="3.74 11.15 3.74 101.31 0 97.57 0 14.89 3.74 11.15"/><polygon class="cls-1" points="102.19 101.31 98.45 105.05 7.47 105.05 3.74 101.31 102.19 101.31"/><polygon class="cls-1" points="109.65 76.85 109.65 105.05 105.92 101.31 105.92 88.43 105.91 88.42 105.91 73.11 109.65 76.85"/><polygon class="cls-1" points="109.65 3.73 109.65 76.85 113.39 73.11 113.39 7.47 109.65 3.73"/><polygon class="cls-1" points="31.92 0 28.2 3.72 3.75 3.72 3.75 3.74 109.66 3.74 105.92 0 31.92 0"/><polygon class="cls-1" points="31.92 7.45 98.45 7.45 102.19 11.19 35.66 11.19 31.92 7.45"/><polygon class="cls-1" points="105.92 14.93 105.92 73.12 102.19 69.38 102.19 11.19 105.92 14.93"/><rect class="cls-1" x="102.18" y="2.85" width="0.01" height="0.01"/><path class="cls-1" d="M7.74,97.57a.24.24,0,0,1-.27-.27V68.55c0-.18.08-.27.23-.27h4.11q4.42,0,6.55,2.84c1.41,1.89,2.12,4.93,2.12,9.1V85q0,6.57-2,9.59t-6.48,3Zm1.57-1.79H11.9q3.66,0,5.21-2.53c1-1.68,1.54-4.42,1.54-8.2V80.22c0-3.58-.55-6.16-1.65-7.76a5.94,5.94,0,0,0-5.24-2.39H9.31Z"/><path class="cls-1" d="M25.35,97.57c-.14,0-.22-.09-.22-.27V68.55c0-.18.08-.27.22-.27h9.71c.15,0,.22.09.22.27V69.8c0,.18-.07.27-.22.27H27V81.74h7.47c.15,0,.22.09.22.27v1.16c0,.18-.07.27-.22.27H27V95.78h8.1c.15,0,.22.09.22.27V97.3c0,.18-.07.27-.22.27Z"/><path class="cls-1" d="M44.62,97.83a6,6,0,0,1-3.57-1,5.07,5.07,0,0,1-1.9-2.75,12,12,0,0,1-.43-4.29c0-.18.08-.27.23-.27h1.34c.17,0,.25.09.22.27a7.43,7.43,0,0,0,.83,4.7,3.81,3.81,0,0,0,3.37,1.52,4,4,0,0,0,3.2-1.23A5.89,5.89,0,0,0,49,91a9.15,9.15,0,0,0-.67-3.82,7.31,7.31,0,0,0-2.37-2.71l-3.35-2.59a8.64,8.64,0,0,1-2.75-3.15A9.85,9.85,0,0,1,39,74.36a6.73,6.73,0,0,1,1.52-4.67A5.32,5.32,0,0,1,44.67,68a5.27,5.27,0,0,1,4.56,2,8.57,8.57,0,0,1,1.2,5.74c0,.21-.07.32-.22.32H48.78c-.12,0-.18-.11-.18-.32a7,7,0,0,0-.8-4.44,3.48,3.48,0,0,0-3.09-1.55A3.62,3.62,0,0,0,41.85,71a4.92,4.92,0,0,0-1,3.35,8,8,0,0,0,.67,3.44,7.37,7.37,0,0,0,2.19,2.55L47,82.86A10.72,10.72,0,0,1,49.25,85a6.79,6.79,0,0,1,1.18,2.5,13.58,13.58,0,0,1,.36,3.33,7.91,7.91,0,0,1-1.5,5.19A5.74,5.74,0,0,1,44.62,97.83Z"/><path class="cls-1" d="M54.68,97.57c-.27,0-.4-.17-.4-.5V68.77c0-.32.13-.49.4-.49h3.89c.27,0,.4.17.4.49v28.3c0,.33-.13.5-.4.5Z"/><path class="cls-1" d="M69.3,97.83a6,6,0,0,1-5.1-2.28q-1.74-2.28-1.74-6.93v-11q0-4.69,2.08-7.16a7.44,7.44,0,0,1,6-2.46,7.35,7.35,0,0,1,6.08,2.55,9.63,9.63,0,0,1,1.75,6.93c0,.33-.17.49-.41.49l-3.89,0c-.26,0-.38-.15-.35-.45a6.42,6.42,0,0,0-.58-3.82,2.75,2.75,0,0,0-2.55-1.36A3,3,0,0,0,68,73.6a7.57,7.57,0,0,0-.85,4.07v10.6a8.22,8.22,0,0,0,.74,4.06,2.76,2.76,0,0,0,2.57,1.21A2.91,2.91,0,0,0,73,92.18a7.62,7.62,0,0,0,.9-4.14V86H70.82c-.27,0-.4-.16-.4-.49V82.9c0-.33.13-.49.4-.49h7.24c.27,0,.41.16.41.49v8.18q0,2.15.06,3.51c0,.91.11,1.72.2,2.44.06.36-.06.54-.35.54h-3a.41.41,0,0,1-.45-.41c-.06-.35-.11-.78-.16-1.27s-.06-1.1-.06-1.81h-.09a6.37,6.37,0,0,1-1.93,2.75A5.18,5.18,0,0,1,69.3,97.83Z"/><path class="cls-1" d="M82.8,97.57c-.27,0-.4-.17-.4-.5V68.77c0-.32.13-.49.4-.49h5.14a.43.43,0,0,1,.45.36l4.07,14.75c.21.75.42,1.58.65,2.51s.44,1.85.67,2.79.39,1.77.51,2.48h.09c0-.59-.07-1.29-.11-2.08s-.09-1.61-.14-2.46S94.06,85,94,84.18s0-1.49,0-2.08V68.73c0-.3.14-.45.41-.45h3.62c.26,0,.4.15.4.45V97.07c0,.33-.14.5-.4.5H93a.47.47,0,0,1-.45-.32L88.43,82.81c-.38-1.4-.73-2.79-1-4.18s-.57-2.67-.81-3.86h-.09c.06.86.11,1.87.16,3s.08,2.31.11,3.46,0,2.15,0,3V97.07c0,.33-.11.5-.35.5Z"/></g></g></svg>