<svg xmlns="http://www.w3.org/2000/svg" viewBox="0 0 113.38 113.39"><defs><style>.cls-1{fill:#323232;}.cls-2{fill:#ffe06a;}</style></defs><g id="Layer_2" data-name="Layer 2"><g id="contact_icons_fill" data-name="contact icons fill"><path class="cls-1" d="M0,56.69a56.69,56.69,0,1,1,56.69,56.7A56.69,56.69,0,0,1,0,56.69Z"/><path class="cls-2" d="M56.69,0a56.7,56.7,0,1,0,56.69,56.69A56.69,56.69,0,0,0,56.69,0ZM90.56,83.24a15.13,15.13,0,0,1-11.24,7.84c-1.32.2-2.65.33-3.45.42a31.12,31.12,0,0,1-13.08-2.9,81.35,81.35,0,0,1-14.64-9.13,76.28,76.28,0,0,1-16.73-17.2,63.28,63.28,0,0,1-8.17-15.52c-1.32-4-2-8-1-12.14a19.65,19.65,0,0,1,8-11.34,5.74,5.74,0,0,1,.53-.32c3.2-1.82,5.62-1.34,7.73,1.69,2.29,3.3,4.55,6.62,6.65,10a37.14,37.14,0,0,1,2.55,5.59,4.38,4.38,0,0,1-.94,4.86,22.44,22.44,0,0,0-1.87,2.46,10.53,10.53,0,0,0-1.73,5.2,8.25,8.25,0,0,0,2,6.28c2.18,2.47,4.34,5,6.51,7.45a5.93,5.93,0,0,0,.43.44c4.9,4.67,8.66,5.35,14.75,2,1.17-.64,2.3-1.36,3.47-2a6.24,6.24,0,0,1,6.47-.07A77.11,77.11,0,0,1,89,75.34a8.66,8.66,0,0,1,1.06,1.12C92,78.8,92.11,80.59,90.56,83.24Z"/></g></g></svg>