<svg xmlns="http://www.w3.org/2000/svg" viewBox="0 0 113.39 113.39"><defs><style>.cls-1{fill:#323232;}.cls-2{fill:#ffe06a;}</style></defs><g id="Layer_2" data-name="Layer 2"><g id="editing_icons_fill" data-name="editing icons fill"><path class="cls-1" d="M113.39,56.69A56.7,56.7,0,1,1,56.69,0,56.71,56.71,0,0,1,113.39,56.69Z"/><path class="cls-2" d="M53.18,56.69,74.61,73V40.43ZM56.69,0a56.7,56.7,0,1,0,56.7,56.69A56.69,56.69,0,0,0,56.69,0ZM92.51,80.74a4.47,4.47,0,0,1-2.53,4l-14.75,7.1A4.43,4.43,0,0,1,70.15,91L41.91,65.25l-12.3,9.34a3,3,0,0,1-3.82-.16l-3.93-3.59a3,3,0,0,1,0-4.41l10.67-9.74L21.84,47a3,3,0,0,1,0-4.41L25.79,39a3,3,0,0,1,3.82-.16l12.3,9.32L70.13,22.37a4.46,4.46,0,0,1,5.1-.86L90,28.6h0a4.49,4.49,0,0,1,2.54,4ZM74.61,73V40.43L53.18,56.69ZM53.18,56.69,74.61,73V40.43Z"/></g></g></svg>