<svg xmlns="http://www.w3.org/2000/svg" viewBox="0 0 113.39 113.38"><defs><style>.cls-1{fill:#323232;}.cls-2{fill:#ffe06a;}</style></defs><g id="Layer_2" data-name="Layer 2"><g id="social_media_icons_fill" data-name="social media icons fill"><path class="cls-1" d="M0,56.69a56.7,56.7,0,1,1,56.7,56.69A56.7,56.7,0,0,1,0,56.69Z"/><path class="cls-2" d="M49.6,46.68V67.84L67.89,57.19ZM56.7,0a56.69,56.69,0,1,0,56.69,56.69A56.7,56.7,0,0,0,56.7,0ZM91,71.11c-1.09,8.19-5.19,9.42-13.24,10.11-7,.68-14.88.81-21,.81s-14.2-.13-21-.81c-8.06-.69-12.29-1.92-13.38-10.11a131.2,131.2,0,0,1-.68-13.92,133.22,133.22,0,0,1,.68-13.92c1.09-8.05,5.32-9.42,13.38-10.1,6.82-.55,14.87-.82,21-.82s14.06.27,21,.82c8,.68,12.15,2,13.24,10.1a102.7,102.7,0,0,1,.82,13.92A101.24,101.24,0,0,1,91,71.11ZM49.6,67.84,67.89,57.19,49.6,46.68Zm0-21.16V67.84L67.89,57.19Z"/></g></g></svg>