<svg xmlns="http://www.w3.org/2000/svg" viewBox="0 0 113.39 113.39"><defs><style>.cls-1{fill:#323232;}.cls-2{fill:#ffe06a;}</style></defs><g id="Layer_2" data-name="Layer 2"><g id="editing_icons_fill" data-name="editing icons fill"><path class="cls-1" d="M0,56.7a56.7,56.7,0,1,1,56.69,56.69A56.7,56.7,0,0,1,0,56.7Z"/><path class="cls-2" d="M82.63,46.57c-5.47,0-7.93,4.21-8.56,8.09H85.89a38.57,38.57,0,0,0,4.36-.08V54A7.34,7.34,0,0,0,82.63,46.57ZM37.28,34.68H37.2C35.93,40,32.76,49.27,30.38,56.49H44.26C42.59,51.25,38.86,40.23,37.28,34.68ZM56.69,0a56.7,56.7,0,1,0,56.7,56.7A56.7,56.7,0,0,0,56.69,0Zm4.38,78.85H52.18a.8.8,0,0,1-.79-.48l-4.6-13.24H27.84L23.48,78.21a.79.79,0,0,1-.87.64H14.68c-.48,0-.64-.24-.56-.79L30.46,31.59a12.46,12.46,0,0,0,.71-4.29c0-.31.16-.55.48-.55h11c.4,0,.47.08.55.48l18.32,50.9C61.62,78.61,61.54,78.85,61.07,78.85ZM98.33,61.17a62.16,62.16,0,0,1-8.16.31H74.07c.24,5.55,3.89,10,12,10a25,25,0,0,0,9.84-1.9c.23-.16.47-.08.47.32v6.58a.84.84,0,0,1-.47.87c-3,1.43-6.51,2.3-11.9,2.3-14.43,0-19.58-10.15-19.58-19.9C64.4,48.72,71.06,39,83,39c11.74,0,16.26,9.2,16.26,16.73A23.82,23.82,0,0,1,99,60.61.69.69,0,0,1,98.33,61.17Zm-15.7-14.6c-5.47,0-7.93,4.21-8.56,8.09H85.89a38.57,38.57,0,0,0,4.36-.08V54A7.34,7.34,0,0,0,82.63,46.57ZM37.2,34.68C35.93,40,32.76,49.27,30.38,56.49H44.26c-1.67-5.24-5.4-16.26-7-21.81ZM82.63,46.57c-5.47,0-7.93,4.21-8.56,8.09H85.89a38.57,38.57,0,0,0,4.36-.08V54A7.34,7.34,0,0,0,82.63,46.57ZM37.28,34.68H37.2C35.93,40,32.76,49.27,30.38,56.49H44.26C42.59,51.25,38.86,40.23,37.28,34.68Z"/></g></g></svg>