<svg xmlns="http://www.w3.org/2000/svg" viewBox="0 0 113.39 113.39"><defs><style>.cls-1{fill:#323232;}.cls-2{fill:#ffe06a;}</style></defs><g id="Layer_2" data-name="Layer 2"><g id="editing_icons_fill" data-name="editing icons fill"><path class="cls-1" d="M113.39,56.7A56.7,56.7,0,1,1,56.7,0,56.69,56.69,0,0,1,113.39,56.7Z"/><path class="cls-2" d="M46.39,39.8h-.08c-1.3,5.45-4.55,15-7,22.34H53.54C51.84,56.78,48,45.49,46.39,39.8ZM56.7,0a56.7,56.7,0,1,0,56.69,56.7A56.71,56.71,0,0,0,56.7,0ZM70.76,85h-9.1a.82.82,0,0,1-.81-.48L56.14,71H36.73l-4.47,13.4a.8.8,0,0,1-.89.65H23.25c-.49,0-.65-.24-.57-.81L39.41,36.64c.32-.82,1.35-4.39,1.35-4.39s.16-.57.49-.57H51.92c.4,0,.48.08.57.49L71.25,84.31C71.33,84.8,71.25,85,70.76,85Zm16.32-.65c0,.49-.16.65-.73.65H78c-.57,0-.81-.24-.81-.73V45.57c0-.41.24-.57.64-.57h8.61c.49,0,.65.08.65.57Zm-5-44.83A5.26,5.26,0,0,1,76.61,34a5.37,5.37,0,0,1,5.6-5.61c3.49,0,5.52,2.36,5.52,5.61A5.28,5.28,0,0,1,82.13,39.56Zm-35.82.24c-1.3,5.45-4.55,15-7,22.34H53.54C51.84,56.78,48,45.49,46.39,39.8Zm.08,0h-.08c-1.3,5.45-4.55,15-7,22.34H53.54C51.84,56.78,48,45.49,46.39,39.8Z"/></g></g></svg>