<svg xmlns="http://www.w3.org/2000/svg" viewBox="0 0 113.38 113.38"><defs><style>.cls-1{fill:#323232;}.cls-2{fill:#ffe06a;}</style></defs><g id="Layer_2" data-name="Layer 2"><g id="social_media_icons_fill" data-name="social media icons fill"><circle class="cls-1" cx="56.69" cy="56.69" r="56.69"/><path class="cls-2" d="M84.6,53.87a8.76,8.76,0,0,0-11.87,0,9,9,0,0,0-1.88,2.62A9.42,9.42,0,0,0,70,59.91h17.4A8.89,8.89,0,0,0,84.6,53.87ZM49.34,63.92a6.6,6.6,0,0,0-1.15-2,5.51,5.51,0,0,0-1.72-1.36,4.78,4.78,0,0,0-2.18-.49h-14V72.4H43.83a5.85,5.85,0,0,0,2.34-.46,5.67,5.67,0,0,0,1.89-1.29,6.4,6.4,0,0,0,1.25-1.94,6.15,6.15,0,0,0,.46-2.38A6.76,6.76,0,0,0,49.34,63.92Zm-3-12.64A5.82,5.82,0,0,0,48,46.92a6,6,0,0,0-1.49-4.29,4.8,4.8,0,0,0-3.66-1.58H30.3V52.86H42.44A5.43,5.43,0,0,0,46.37,51.28ZM56.69,0a56.69,56.69,0,1,0,56.69,56.69A56.69,56.69,0,0,0,56.69,0ZM67.4,35.48H89.83v5.57H67.4ZM57.76,73.26A10.83,10.83,0,0,1,54.49,77a14.87,14.87,0,0,1-4.82,2.31,20.81,20.81,0,0,1-5.84.8H21.19V33.26H46.27a9.32,9.32,0,0,1,4.43,1.05,11.09,11.09,0,0,1,3.36,2.74,12.51,12.51,0,0,1,2.15,3.83,12.81,12.81,0,0,1-1,10.76,10.43,10.43,0,0,1-5,4.46,12.1,12.1,0,0,1,6.38,4.25A12.35,12.35,0,0,1,59,68.05,11,11,0,0,1,57.76,73.26ZM96.18,64.2A6.83,6.83,0,0,1,96,65.48H70.11a10.09,10.09,0,0,0,1,3.52,8.59,8.59,0,0,0,4.73,4.28,8.93,8.93,0,0,0,3.2.58,9.88,9.88,0,0,0,4.83-1.25,6.6,6.6,0,0,0,3.1-3.29l7.36,2a15,15,0,0,1-5.92,6.3,18.27,18.27,0,0,1-9.69,2.47,18.57,18.57,0,0,1-7.29-1.38,16.39,16.39,0,0,1-9.11-9.24A17.51,17.51,0,0,1,61,62.92a18.67,18.67,0,0,1,1.21-6.75,16.45,16.45,0,0,1,9.12-9.37,18.58,18.58,0,0,1,7.39-1.41,18.1,18.1,0,0,1,7.32,1.41C93.15,49.89,96.48,56.75,96.18,64.2ZM78.62,51.6a8.54,8.54,0,0,0-5.89,2.3,9,9,0,0,0-1.88,2.62A9.42,9.42,0,0,0,70,59.91h17.4a8.89,8.89,0,0,0-2.78-6A8.52,8.52,0,0,0,78.62,51.6ZM48.19,61.91a5.51,5.51,0,0,0-1.72-1.36,4.78,4.78,0,0,0-2.18-.49h-14V72.4H43.83a5.85,5.85,0,0,0,2.34-.46,5.67,5.67,0,0,0,1.89-1.29,6.4,6.4,0,0,0,1.25-1.94,6.15,6.15,0,0,0,.46-2.38,6.76,6.76,0,0,0-.43-2.41A6.6,6.6,0,0,0,48.19,61.91ZM46.37,51.28A5.82,5.82,0,0,0,48,46.92a6,6,0,0,0-1.49-4.29,4.8,4.8,0,0,0-3.66-1.58H30.3V52.86H42.44A5.43,5.43,0,0,0,46.37,51.28Zm.13-8.65a4.8,4.8,0,0,0-3.66-1.58H30.3V52.86H42.44a5.43,5.43,0,0,0,3.93-1.58A5.82,5.82,0,0,0,48,46.92,6,6,0,0,0,46.5,42.63Zm2.84,21.29a6.6,6.6,0,0,0-1.15-2,5.51,5.51,0,0,0-1.72-1.36,4.78,4.78,0,0,0-2.18-.49h-14V72.4H43.83a5.85,5.85,0,0,0,2.34-.46,5.67,5.67,0,0,0,1.89-1.29,6.4,6.4,0,0,0,1.25-1.94,6.15,6.15,0,0,0,.46-2.38A6.76,6.76,0,0,0,49.34,63.92ZM84.6,53.87a8.76,8.76,0,0,0-11.87,0,9,9,0,0,0-1.88,2.62A9.42,9.42,0,0,0,70,59.91h17.4A8.89,8.89,0,0,0,84.6,53.87Z"/></g></g></svg>