<svg xmlns="http://www.w3.org/2000/svg" viewBox="0 0 113.38 113.39"><defs><style>.cls-1{fill:#323232;}.cls-2{fill:#ffe06a;}</style></defs><g id="Layer_2" data-name="Layer 2"><g id="interests_icons_fill" data-name="interests icons fill"><path class="cls-1" d="M113.38,56.7A56.69,56.69,0,1,1,56.69,0,56.69,56.69,0,0,1,113.38,56.7Z"/><path class="cls-2" d="M56.69,0a56.7,56.7,0,1,0,56.69,56.7A56.7,56.7,0,0,0,56.69,0ZM77.85,87.45H35.55V79.84h42.3Zm.58-24.26c-.42.13-.56.29-.56.74,0,3.72,0,7.45,0,11.18v.77H35.51v-.8c0-3.71,0-7.41,0-11.12,0-.46-.14-.63-.59-.78A15,15,0,0,1,24.34,51.8c-.14-.57-.23-1.15-.35-1.73V47.39c0-.23.09-.46.13-.68a14.9,14.9,0,0,1,9.75-12.24,14.18,14.18,0,0,1,9-.51c.4.1.65,0,.81-.35a3.91,3.91,0,0,1,.26-.44,15.13,15.13,0,0,1,17.78-6.4,14.8,14.8,0,0,1,8.08,6.59.89.89,0,0,0,1.21.5,10.78,10.78,0,0,1,1.89-.29,15.13,15.13,0,0,1,5.57,29.62Z"/></g></g></svg>