<svg xmlns="http://www.w3.org/2000/svg" viewBox="0 0 113.39 113.39"><defs><style>.cls-1{fill:#323232;}.cls-2{fill:#ffe06a;}</style></defs><g id="Layer_2" data-name="Layer 2"><g id="editing_icons_fill" data-name="editing icons fill"><path class="cls-1" d="M0,56.69a56.7,56.7,0,1,1,56.7,56.7A56.7,56.7,0,0,1,0,56.69Z"/><path class="cls-2" d="M56.7,0a56.7,56.7,0,1,0,56.69,56.69A56.7,56.7,0,0,0,56.7,0ZM23.57,60.8a5.78,5.78,0,0,0,5.83,4.93,6.05,6.05,0,0,0,6-4.94c.07-.33.11-.68.17-1.06h6a11.69,11.69,0,0,1-3.78,8.7c-3.8,3.46-8.23,4.36-13,2.38a11.49,11.49,0,0,1-7.44-10.88,53.47,53.47,0,0,1,.19-8.3c.65-5.68,6-10.1,11.92-10.09a12.12,12.12,0,0,1,11.9,10c.09.65.14,1.3.22,2H35.53a6.14,6.14,0,0,0-3.21-5.25c-3.59-2-8.23.13-8.74,4.17A37.06,37.06,0,0,0,23.57,60.8Zm45.2,2.71a9,9,0,0,1-9.29,8.26,70.64,70.64,0,0,1-7.28-.18C48,71.2,44.54,67,44.67,62.76h5.92c0,.2.1.44.16.67a3,3,0,0,0,3,2.3c2,0,3.92,0,5.87,0a3,3,0,1,0-.05-6c-2.43,0-4.87,0-7.28-.19-4.54-.43-8.18-5.17-7.6-9.69A9,9,0,0,1,54,41.55c2.42,0,4.86,0,7.27.18,4.18.39,7.67,4.57,7.53,8.84H62.85c-.05-.21-.1-.44-.17-.67a3,3,0,0,0-3-2.3c-2,0-3.91,0-5.87,0a3,3,0,0,0-3.17,3,3.07,3.07,0,0,0,3.23,3c2.42,0,4.86,0,7.27.19C65.7,54.25,69.35,59,68.77,63.51Zm27.27,0a9,9,0,0,1-9.29,8.26,70.51,70.51,0,0,1-7.27-.18C75.3,71.2,71.82,67,72,62.76h5.91c0,.2.1.44.17.67a3,3,0,0,0,3,2.3c2,0,3.91,0,5.87,0a3,3,0,0,0,3.17-3.05,3.06,3.06,0,0,0-3.23-3c-2.42,0-4.86,0-7.27-.19-4.54-.43-8.19-5.17-7.61-9.69a9,9,0,0,1,9.29-8.26c2.43,0,4.87,0,7.28.18,4.17.39,7.66,4.57,7.53,8.84H90.12c-.05-.21-.1-.44-.16-.67a3,3,0,0,0-3-2.3c-2,0-3.92,0-5.87,0a3,3,0,1,0,0,6c2.43,0,4.87,0,7.28.19C93,54.25,96.62,59,96,63.51Z"/></g></g></svg>