<svg xmlns="http://www.w3.org/2000/svg" viewBox="0 0 113.38 113.39"><defs><style>.cls-1{fill:#323232;}.cls-2{fill:#ffe06a;}</style></defs><g id="Layer_2" data-name="Layer 2"><g id="editing_icons_fill" data-name="editing icons fill"><path class="cls-1" d="M0,56.69a56.69,56.69,0,1,1,56.69,56.7A56.69,56.69,0,0,1,0,56.69Z"/><path class="cls-2" d="M56.69,0a56.7,56.7,0,1,0,56.69,56.69A56.69,56.69,0,0,0,56.69,0ZM52.21,67.8c-5.37,5-11.13,9.28-18.53,10.8-3,.62-5.78-.25-8.4-1.54a16.84,16.84,0,0,1,6.57-31.95,14.12,14.12,0,0,1,8.31,2.29c3.9,2.46,7.7,5.11,11.38,7.91a8.06,8.06,0,0,1,3.05,6.77A7.67,7.67,0,0,1,52.21,67.8ZM50.69,48.42A47.54,47.54,0,0,1,41.75,34.9a22.5,22.5,0,0,1-1.16-4,11.22,11.22,0,0,1,0-5A17.34,17.34,0,0,1,53.52,13,16.68,16.68,0,0,1,73.91,28.51a16.25,16.25,0,0,1-1.29,6.3,43.86,43.86,0,0,1-9,13.65A8.54,8.54,0,0,1,50.69,48.42ZM82.52,78.55a14.16,14.16,0,0,1-8.3-2.28c-3.9-2.47-7.7-5.12-11.38-7.91a8.07,8.07,0,0,1-3.05-6.77,7.69,7.69,0,0,1,2.38-5.73c5.37-5,11.13-9.27,18.53-10.79,3-.63,5.78.24,8.4,1.54a16.83,16.83,0,0,1-6.58,31.94Z"/></g></g></svg>