<svg xmlns="http://www.w3.org/2000/svg" viewBox="0 0 113.39 113.39"><defs><style>.cls-1{fill:#323232;}.cls-2{fill:#ffe06a;}</style></defs><g id="Layer_2" data-name="Layer 2"><g id="contact_icons_fill" data-name="contact icons fill"><path class="cls-1" d="M0,56.69a56.7,56.7,0,1,1,56.7,56.7A56.7,56.7,0,0,1,0,56.69Z"/><path class="cls-2" d="M62.46,50A4.35,4.35,0,0,0,59.88,46a5.82,5.82,0,0,0-6.43.52,9.61,9.61,0,0,0-2.92,3.44,21.45,21.45,0,0,0-2.28,13,9.83,9.83,0,0,0,1.34,3.7,5.52,5.52,0,0,0,8.34,1.72,9.39,9.39,0,0,0,3.31-4.18,14.4,14.4,0,0,0,1.15-5.25c0-1.42,0-2.84,0-4.27h.05C62.45,53.08,62.45,51.56,62.46,50ZM56.7,0a56.7,56.7,0,1,0,56.69,56.69A56.7,56.7,0,0,0,56.7,0ZM89.42,67.88a22,22,0,0,1-5.57,6,14.18,14.18,0,0,1-7.63,2.82,36.36,36.36,0,0,1-4.55.05,8.7,8.7,0,0,1-8.07-5.73,4.77,4.77,0,0,0-.22-.52,2,2,0,0,0-.29-.28,5.79,5.79,0,0,0-.65.87c-1.66,3.7-4.7,5.29-8.55,5.63a29.73,29.73,0,0,1-3.13.07c-4.6,0-7.9-2.31-10.25-6.12a14.09,14.09,0,0,1-1.93-5.32,30,30,0,0,1,1.52-16,19.86,19.86,0,0,1,5.95-8.21,14.21,14.21,0,0,1,8.31-3.33,17.81,17.81,0,0,1,9.35,1.66c.75-.34,1.19-1,2.09-.93,2.46.1,4.93,0,7.4.07a3.62,3.62,0,0,1,1,.33c-.22,2.34-.46,4.68-.65,7-.44,5.48-.9,11-1.23,16.45a12.72,12.72,0,0,0,.48,4.21c.69,2.47,2.52,3.21,4.89,2.25a6.66,6.66,0,0,0,2.95-2.58,16.47,16.47,0,0,0,2.31-5.17,29.53,29.53,0,0,0-.21-17.12c-2.63-7.8-8.13-12.66-16.13-14.56a30.51,30.51,0,0,0-14.68,0C40.57,32.4,33.6,39.83,30.51,50.93a30.78,30.78,0,0,0-.2,15.49c2.25,9.7,8.73,16,18.5,17.73a54.76,54.76,0,0,0,21.49-.54c1.1-.25,2.17-.67,3.25-1,.53-.16,1.06-.29,1.72-.46A44.28,44.28,0,0,1,75.35,90a16.75,16.75,0,0,1-5.24,2.06A49.34,49.34,0,0,1,51.8,93.55a42.56,42.56,0,0,1-14.21-3.77,29.67,29.67,0,0,1-16.31-19.1,39.89,39.89,0,0,1,1.85-28.33A32.33,32.33,0,0,1,28.54,34c6.35-7.14,14-12.33,23.56-13.84,6.52-1,13.14-1,19.38,1.43,10.59,4.07,18.27,11.2,21.23,22.45C94.9,52.35,94.08,60.44,89.42,67.88ZM59.88,46a5.82,5.82,0,0,0-6.43.52,9.61,9.61,0,0,0-2.92,3.44,21.45,21.45,0,0,0-2.28,13,9.83,9.83,0,0,0,1.34,3.7,5.52,5.52,0,0,0,8.34,1.72,9.39,9.39,0,0,0,3.31-4.18,14.4,14.4,0,0,0,1.15-5.25c0-1.42,0-2.84,0-4.27h.05c0-1.51,0-3,0-4.55A4.35,4.35,0,0,0,59.88,46ZM62.46,50A4.35,4.35,0,0,0,59.88,46a5.82,5.82,0,0,0-6.43.52,9.61,9.61,0,0,0-2.92,3.44,21.45,21.45,0,0,0-2.28,13,9.83,9.83,0,0,0,1.34,3.7,5.52,5.52,0,0,0,8.34,1.72,9.39,9.39,0,0,0,3.31-4.18,14.4,14.4,0,0,0,1.15-5.25c0-1.42,0-2.84,0-4.27h.05C62.45,53.08,62.45,51.56,62.46,50Z"/></g></g></svg>