<svg xmlns="http://www.w3.org/2000/svg" viewBox="0 0 114.78 104.65"><defs><style>.cls-1{fill:#ffe06a;}</style></defs><g id="Layer_2" data-name="Layer 2"><g id="pn_icon" data-name="pn icon"><polyline class="cls-1" points="0 3.7 28.19 3.7 31.91 7.41 3.74 7.41"/><path class="cls-1" d="M61.7,62.27c-.28,0-.42-.16-.42-.5V33.05q0-4.36-1.47-6.42a5.24,5.24,0,0,0-4.58-2.06,10.33,10.33,0,0,0-6,2.06,35.79,35.79,0,0,0-6.13,5.67l-.08-3.45a30,30,0,0,1,6.42-5.75,12.43,12.43,0,0,1,6.76-2.05,7.75,7.75,0,0,1,6.51,2.85Q65,26.75,65,32.8v29a.44.44,0,0,1-.5.5Z"/><path class="cls-1" d="M40.54,62.27c-.28,0-.42-.16-.42-.5V31.46c0-1.79,0-3.47-.08-5s-.14-2.91-.26-4c-.05-.45.09-.67.43-.67h2.43a.44.44,0,0,1,.5.5c.17,1.12.3,2.49.38,4.11s.16,2.94.21,4l.09.76V61.77a.44.44,0,0,1-.51.5Z"/><path class="cls-1" d="M30.23,5Q25.39,0,15.12,0H1C.32,0,0,.35,0,1.05V61.23c0,.7.32,1,1,1H9.7c.63,0,1-.34,1-1v-21h4.66q9.89,0,14.83-5.14t4.94-14.92Q35.08,10.08,30.23,5Zm-8.08,23.2Q19.87,30.81,15,30.8H10.65V9.41h4.47q4.76,0,7,2.57t2.28,8.37Q24.43,25.67,22.15,28.24Z"/><path class="cls-1" d="M.34,104.31A.3.3,0,0,1,0,104V67.7c0-.22.09-.34.28-.34H5.47c3.72,0,6.48,1.2,8.26,3.59s2.68,6.21,2.68,11.47v6q0,8.3-2.53,12.1c-1.7,2.54-4.42,3.81-8.18,3.81Zm2-2.26H5.58q4.64,0,6.57-3.18T14.1,88.52v-6.1q0-6.76-2.09-9.78t-6.6-3H2.31Z"/><path class="cls-1" d="M22.56,104.31c-.19,0-.28-.11-.28-.34V67.7c0-.22.09-.34.28-.34H34.8c.19,0,.28.12.28.34v1.58c0,.23-.09.34-.28.34H24.59V84.34H34c.19,0,.28.12.28.34v1.47c0,.22-.09.34-.28.34H24.59v15.56H34.8c.19,0,.28.12.28.34V104c0,.23-.09.34-.28.34Z"/><path class="cls-1" d="M46.87,104.65a7.56,7.56,0,0,1-4.51-1.22A6.45,6.45,0,0,1,40,100a15.57,15.57,0,0,1-.54-5.42c0-.22.1-.34.29-.34H41.4c.22,0,.32.12.28.34-.19,2.67.16,4.65,1,5.92A4.82,4.82,0,0,0,47,102.39a5,5,0,0,0,4-1.55Q52.35,99.3,52.34,96a11.5,11.5,0,0,0-.85-4.82,9,9,0,0,0-3-3.41l-4.23-3.27a11,11,0,0,1-3.46-4A12.47,12.47,0,0,1,39.76,75a8.47,8.47,0,0,1,1.92-5.9A6.73,6.73,0,0,1,46.93,67a6.63,6.63,0,0,1,5.75,2.56q1.86,2.56,1.52,7.25c0,.26-.09.4-.28.4H52.11c-.15,0-.22-.14-.22-.4a8.8,8.8,0,0,0-1-5.61,4.35,4.35,0,0,0-3.89-2,4.57,4.57,0,0,0-3.61,1.47A6.22,6.22,0,0,0,42.07,75a10,10,0,0,0,.85,4.34,9.14,9.14,0,0,0,2.76,3.22l4.18,3.21a14.44,14.44,0,0,1,2.85,2.74,8.78,8.78,0,0,1,1.49,3.16,17.21,17.21,0,0,1,.45,4.2q0,4.29-1.89,6.54T46.87,104.65Z"/><path class="cls-1" d="M59.56,104.31c-.34,0-.51-.21-.51-.62V68q0-.63.51-.63h4.91c.34,0,.5.21.5.63v35.7c0,.41-.16.62-.5.62Z"/><path class="cls-1" d="M78,104.65a7.6,7.6,0,0,1-6.43-2.88c-1.46-1.92-2.2-4.83-2.2-8.74V79.15c0-4,.88-7,2.63-9S76.27,67,79.58,67s5.94,1.07,7.67,3.21,2.47,5.06,2.2,8.74c0,.42-.2.62-.5.62l-4.91,0q-.51,0-.45-.57a8.1,8.1,0,0,0-.74-4.82,3.45,3.45,0,0,0-3.21-1.72,3.72,3.72,0,0,0-3.33,1.64,9.61,9.61,0,0,0-1.07,5.13V92.58a10.41,10.41,0,0,0,.93,5.13,3.5,3.5,0,0,0,3.24,1.52,3.66,3.66,0,0,0,3.27-1.72,9.54,9.54,0,0,0,1.13-5.22V89.76H79.92c-.34,0-.51-.21-.51-.62V85.81c0-.41.17-.62.51-.62h9.14c.34,0,.51.21.51.62V96.13c0,1.81,0,3.28.08,4.43s.14,2.17.25,3.07c.08.45-.07.68-.45.68H85.62a.52.52,0,0,1-.57-.51c-.07-.45-.14-1-.19-1.61s-.09-1.38-.09-2.28h-.11a8,8,0,0,1-2.43,3.47A6.58,6.58,0,0,1,78,104.65Z"/><path class="cls-1" d="M95,104.31c-.34,0-.51-.21-.51-.62V68q0-.63.51-.63h6.48a.55.55,0,0,1,.57.46l5.13,18.61c.26.94.54,2,.82,3.16s.56,2.34.84,3.52.5,2.23.65,3.13h.11c0-.75-.08-1.62-.14-2.62s-.11-2-.17-3.1-.09-2.11-.11-3.1,0-1.87,0-2.63V67.93q0-.57.51-.57h4.57q.51,0,.51.57v35.76c0,.41-.17.62-.51.62h-6.43a.57.57,0,0,1-.56-.4L102.14,85.7q-.73-2.65-1.29-5.28c-.38-1.75-.72-3.37-1-4.88h-.11c.07,1.09.14,2.37.2,3.84s.1,2.92.14,4.37,0,2.72,0,3.81v16.13c0,.41-.15.62-.45.62Z"/></g></g></svg>