<svg xmlns="http://www.w3.org/2000/svg" viewBox="0 0 113.39 113.39"><defs><style>.cls-1{fill:#323232;}.cls-2{fill:#ffe06a;}</style></defs><g id="Layer_2" data-name="Layer 2"><g id="social_media_icons_fill" data-name="social media icons fill"><path class="cls-1" d="M0,56.7a56.7,56.7,0,1,1,56.7,56.69A56.71,56.71,0,0,1,0,56.7Z"/><path class="cls-2" d="M56.7,0a56.7,56.7,0,1,0,56.69,56.7A56.71,56.71,0,0,0,56.7,0ZM77.16,30.15H70.45c-3.71,0-7.6,2.3-7.6,6.36v11H76.63L74.34,62H62.85V97.83H47.3V62H34.23V47.47H47.3V36.69c0-10.78,6.36-19.79,17.85-19.09l12,.53Z"/></g></g></svg>