<svg xmlns="http://www.w3.org/2000/svg" viewBox="0 0 113.39 113.39"><defs><style>.cls-1{fill:#323232;}.cls-2{fill:#ffe06a;}</style></defs><g id="Layer_2" data-name="Layer 2"><g id="editing_icons_fill" data-name="editing icons fill"><path class="cls-1" d="M113.39,56.69A56.7,56.7,0,1,1,56.7,0,56.7,56.7,0,0,1,113.39,56.69Z"/><path class="cls-2" d="M70.27,19.4H60.13V39.68H70.27a10.14,10.14,0,1,0,0-20.28ZM80.41,29.54A10.14,10.14,0,0,0,70.27,19.4H60.13V39.68H70.27A10.14,10.14,0,0,0,80.41,29.54Zm-10.14,17A10.14,10.14,0,0,0,60.13,56.67v0A10.14,10.14,0,1,0,70.27,46.55ZM43.08,73.71A10.14,10.14,0,1,0,53.26,83.85V73.71ZM33,56.69a10.14,10.14,0,0,0,10.1,10.14H53.26V46.55H43.12A10.14,10.14,0,0,0,33,56.69Zm0-27.15A10.14,10.14,0,0,0,43.12,39.68H53.26V19.4H43.12A10.14,10.14,0,0,0,33,29.54ZM56.7,0a56.7,56.7,0,1,0,56.69,56.69A56.7,56.7,0,0,0,56.7,0ZM87.29,56.69A17,17,0,0,1,60.13,70.36V83.85A17,17,0,1,1,32.86,70.27a17,17,0,0,1,0-27.15,17,17,0,0,1,10.26-30.6H70.27A17,17,0,0,1,80.53,43.11,17,17,0,0,1,87.29,56.69Zm-17-37.29H60.13V39.68H70.27a10.14,10.14,0,1,0,0-20.28Zm0,27.15A10.14,10.14,0,0,0,60.13,56.67v0A10.14,10.14,0,1,0,70.27,46.55ZM43.08,73.71A10.14,10.14,0,1,0,53.26,83.85V73.71ZM33,56.69a10.14,10.14,0,0,0,10.1,10.14H53.26V46.55H43.12A10.14,10.14,0,0,0,33,56.69Zm0-27.15A10.14,10.14,0,0,0,43.12,39.68H53.26V19.4H43.12A10.14,10.14,0,0,0,33,29.54Zm10.14,17a10.14,10.14,0,0,0,0,20.28H53.26V46.55Zm27.15,0A10.14,10.14,0,0,0,60.13,56.67v0A10.14,10.14,0,1,0,70.27,46.55ZM43.08,73.71A10.14,10.14,0,1,0,53.26,83.85V73.71Zm0-54.31a10.14,10.14,0,0,0,0,20.28H53.26V19.4Z"/></g></g></svg>