<svg xmlns="http://www.w3.org/2000/svg" viewBox="0 0 113.38 113.39"><defs><style>.cls-1{fill:#323232;}.cls-2{fill:#ffe06a;}</style></defs><g id="Layer_2" data-name="Layer 2"><g id="social_media_icons_fill" data-name="social media icons fill"><path class="cls-1" d="M0,56.7a56.69,56.69,0,1,1,56.69,56.69A56.7,56.7,0,0,1,0,56.7Z"/><path class="cls-2" d="M73.28,26.64H40.1A13.57,13.57,0,0,0,26.55,40.19v33A13.57,13.57,0,0,0,40.1,86.75H73.28A13.57,13.57,0,0,0,86.83,73.2v-33A13.57,13.57,0,0,0,73.28,26.64ZM56.78,76.5H56.6a19.81,19.81,0,0,1,0-39.61h.18a19.81,19.81,0,0,1,0,39.61ZM76.24,41.41a4.17,4.17,0,0,1,0-8.34,4.17,4.17,0,0,1,0,8.34ZM56.78,43.67H56.6a13.12,13.12,0,0,0,0,26.23h.18a13.12,13.12,0,0,0,0-26.23ZM56.69,0a56.7,56.7,0,1,0,56.69,56.7A56.7,56.7,0,0,0,56.69,0Zm36.4,73.37A19.72,19.72,0,0,1,73.46,93H39.93A19.72,19.72,0,0,1,20.3,73.37V40A19.72,19.72,0,0,1,39.93,20.39H73.46A19.72,19.72,0,0,1,93.09,40ZM73.28,26.64H40.1A13.57,13.57,0,0,0,26.55,40.19v33A13.57,13.57,0,0,0,40.1,86.75H73.28A13.57,13.57,0,0,0,86.83,73.2v-33A13.57,13.57,0,0,0,73.28,26.64ZM56.78,76.5H56.6a19.81,19.81,0,0,1,0-39.61h.18a19.81,19.81,0,0,1,0,39.61ZM76.24,41.41a4.17,4.17,0,0,1,0-8.34,4.17,4.17,0,0,1,0,8.34ZM56.78,43.67H56.6a13.12,13.12,0,0,0,0,26.23h.18a13.12,13.12,0,0,0,0-26.23Zm0,0H56.6a13.12,13.12,0,0,0,0,26.23h.18a13.12,13.12,0,0,0,0-26.23Zm0,0H56.6a13.12,13.12,0,0,0,0,26.23h.18a13.12,13.12,0,0,0,0-26.23Zm16.5-17H40.1A13.57,13.57,0,0,0,26.55,40.19v33A13.57,13.57,0,0,0,40.1,86.75H73.28A13.57,13.57,0,0,0,86.83,73.2v-33A13.57,13.57,0,0,0,73.28,26.64ZM56.78,76.5H56.6a19.81,19.81,0,0,1,0-39.61h.18a19.81,19.81,0,0,1,0,39.61ZM76.24,41.41a4.17,4.17,0,0,1,0-8.34,4.17,4.17,0,0,1,0,8.34ZM56.78,43.67H56.6a13.12,13.12,0,0,0,0,26.23h.18a13.12,13.12,0,0,0,0-26.23Z"/></g></g></svg>