<svg xmlns="http://www.w3.org/2000/svg" viewBox="0 0 113.38 113.39"><defs><style>.cls-1{fill:#323232;}.cls-2{fill:#ffe06a;}</style></defs><g id="Layer_2" data-name="Layer 2"><g id="contact_icons_fill" data-name="contact icons fill"><path class="cls-1" d="M0,56.69a56.69,56.69,0,1,1,56.69,56.7A56.69,56.69,0,0,1,0,56.69Z"/><path class="cls-2" d="M57,34.56a13,13,0,1,0-.38,25.93c8.41,0,13.3-7.31,13.05-12.8A12.93,12.93,0,0,0,57,34.56Zm0,0a13,13,0,1,0-.38,25.93c8.41,0,13.3-7.31,13.05-12.8A12.93,12.93,0,0,0,57,34.56ZM56.69,0a56.7,56.7,0,1,0,56.69,56.69A56.69,56.69,0,0,0,56.69,0ZM83.92,54.84A79.86,79.86,0,0,1,77.4,68.25,225,225,0,0,1,61.16,91.62a14,14,0,0,1-1.48,1.69,4.2,4.2,0,0,1-5.87.07,7.24,7.24,0,0,1-1-1C45.29,82.62,38,72.7,32.47,61.63a63,63,0,0,1-3.34-8.06c-1.93-5.71-1.15-11.35,1-16.81A28.66,28.66,0,0,1,84.7,41.25,23.62,23.62,0,0,1,83.92,54.84ZM57,34.56a13,13,0,1,0-.38,25.93c8.41,0,13.3-7.31,13.05-12.8A12.93,12.93,0,0,0,57,34.56Z"/></g></g></svg>