<svg xmlns="http://www.w3.org/2000/svg" viewBox="0 0 113.39 113.39"><defs><style>.cls-1{fill:#323232;}.cls-2{fill:#ffe06a;}</style></defs><g id="Layer_2" data-name="Layer 2"><g id="interests_icons_fill" data-name="interests icons fill"><path class="cls-1" d="M113.39,56.7A56.7,56.7,0,1,1,56.69,0,56.7,56.7,0,0,1,113.39,56.7Z"/><path class="cls-2" d="M51.65,38.48h-9a1.85,1.85,0,0,0-.45.11c0,.22.05.44.05.66,0,2.48,0,5,0,7.43,0,.45,0,.89-.05,1.34a2.46,2.46,0,0,0,.45.11h9a1.31,1.31,0,0,0,.27-.06V38.53A1.28,1.28,0,0,0,51.65,38.48Zm6.2,9.65c-2,0-3.94,0-5.91,0V57.6h9.67V48.09C60.36,48.1,59.1,48.13,57.85,48.13ZM42.2,29H32.71v9.47h8.85a3.47,3.47,0,0,1,.63.11,3.91,3.91,0,0,0,.05-.48V29.34A1.86,1.86,0,0,0,42.2,29ZM71.31,57.21a2.45,2.45,0,0,0,0,.39h9.37V48.13H72a3.73,3.73,0,0,1-.64-.11,4.93,4.93,0,0,0,0,.54Q71.29,52.9,71.31,57.21ZM80,38.47h.69V29H71.34c0,.1,0,.15,0,.21,0,3,0,6,0,8.95a3,3,0,0,0,0,.42,3.69,3.69,0,0,1,.64-.1Zm-8.67.11a4.72,4.72,0,0,0-.64-.1H62.21a3.8,3.8,0,0,0-.58.06v9.53a2.76,2.76,0,0,0,.4.06h8.81a2.29,2.29,0,0,0,.52-.11c0-.22,0-.44,0-.66q0-4.05,0-8.12C71.31,39,71.34,38.8,71.36,38.58ZM51.94,48.09V57.6h9.67V48.09c-1.25,0-2.51,0-3.76,0C55.88,48.13,53.91,48.1,51.94,48.09Zm0-9.58,5.91,0c1.25,0,2.51,0,3.76,0V29H51.94Zm-9.3,0a1.85,1.85,0,0,0-.45.11c0,.22.05.44.05.66,0,2.48,0,5,0,7.43,0,.45,0,.89-.05,1.34a2.46,2.46,0,0,0,.45.11h9a1.31,1.31,0,0,0,.27-.06V38.53a1.28,1.28,0,0,0-.27-.05Zm-9.93,9.65v9.48h9.53V48.5a3.91,3.91,0,0,0-.05-.48,3.47,3.47,0,0,1-.63.11Zm9.53-18.79a1.86,1.86,0,0,0,0-.34H32.71v9.47h8.85a3.47,3.47,0,0,1,.63.11,3.91,3.91,0,0,0,.05-.48ZM56.69,0a56.7,56.7,0,1,0,56.7,56.7A56.7,56.7,0,0,0,56.69,0ZM84.38,61.28H32.68V88.09H29V25.31H84.38ZM71.31,57.21a2.45,2.45,0,0,0,0,.39h9.37V48.13H72a3.73,3.73,0,0,1-.64-.11,4.93,4.93,0,0,0,0,.54Q71.29,52.9,71.31,57.21ZM80,38.47h.69V29H71.34c0,.1,0,.15,0,.21,0,3,0,6,0,8.95a3,3,0,0,0,0,.42,3.69,3.69,0,0,1,.64-.1Zm-9.19,9.66a2.29,2.29,0,0,0,.52-.11c0-.22,0-.44,0-.66q0-4.05,0-8.12c0-.22,0-.44,0-.66a4.72,4.72,0,0,0-.64-.1H62.21a3.8,3.8,0,0,0-.58.06v9.53a2.76,2.76,0,0,0,.4.06Zm-9.23,0c-1.25,0-2.51,0-3.76,0-2,0-3.94,0-5.91,0V57.6h9.67Zm0-9.58V29H51.94v9.51l5.91,0C59.1,38.47,60.36,38.5,61.61,38.51Zm-10,9.62a1.31,1.31,0,0,0,.27-.06V38.53a1.28,1.28,0,0,0-.27-.05h-9a1.85,1.85,0,0,0-.45.11c0,.22.05.44.05.66,0,2.48,0,5,0,7.43,0,.45,0,.89-.05,1.34a2.46,2.46,0,0,0,.45.11Zm-9.41.37a3.91,3.91,0,0,0-.05-.48,3.47,3.47,0,0,1-.63.11H32.71v9.48h9.53Zm0-19.16a1.86,1.86,0,0,0,0-.34H32.71v9.47h8.85a3.47,3.47,0,0,1,.63.11,3.91,3.91,0,0,0,.05-.48ZM71.34,29c0,.1,0,.15,0,.21,0,3,0,6,0,8.95a3,3,0,0,0,0,.42,3.69,3.69,0,0,1,.64-.1h8.72V29ZM72,48.13a3.73,3.73,0,0,1-.64-.11,4.93,4.93,0,0,0,0,.54q0,4.34,0,8.65a2.45,2.45,0,0,0,0,.39h9.37V48.13ZM42.19,48a3.47,3.47,0,0,1-.63.11H32.71v9.48h9.53V48.5A3.91,3.91,0,0,0,42.19,48Zm29.12-8.78c0-.22,0-.44,0-.66a4.72,4.72,0,0,0-.64-.1H62.21a3.8,3.8,0,0,0-.58.06v9.53a2.76,2.76,0,0,0,.4.06h8.81a2.29,2.29,0,0,0,.52-.11c0-.22,0-.44,0-.66Q71.29,43.31,71.31,39.24ZM51.94,29v9.51l5.91,0c1.25,0,2.51,0,3.76,0V29Z"/></g></g></svg>