<svg xmlns="http://www.w3.org/2000/svg" viewBox="0 0 283.46 117.51"><defs><style>.cls-1{fill:#ffe06a;}</style></defs><g id="Layer_2" data-name="Layer 2"><g id="Layer_1-2" data-name="Layer 1"><path class="cls-1" d="M92,0q17.72,0,25.33,6.87T125,31.17a75.24,75.24,0,0,1-.74,11.37,21.12,21.12,0,0,1-3,8.2,15.1,15.1,0,0,1-5.17,5.17q-3,1.71-12.4,4.8Q114,62,118.9,66t4.88,13.66V98.53H93.35V89.08a42.33,42.33,0,0,0-1.26-11.53q-1.26-4.27-11.74-4.28H30.27V98.53H.28V0ZM79.46,49.34q10.2,0,12.7-2.51T94.68,35.6a20.4,20.4,0,0,0-1-7.24,5.7,5.7,0,0,0-4-3.25,25.58,25.58,0,0,0-5-1c-1.28-.1-2.81-.15-4.58-.15H30.27V49.34H79.46ZM195,37.08,235.63,0H277L220.47,48.75l62.71,49.78h-44L195,61H179.61V98.53h-30V0h30V37.08ZM0,114.17a.31.31,0,0,0,.28.34H.39a.33.33,0,0,0,.29-.35.32.32,0,0,0-.35-.28h0A.33.33,0,0,0,0,114.17Zm10.83-.06A1.28,1.28,0,0,0,12,115.48h.28a1.29,1.29,0,1,0-.18-2.58H12A1.27,1.27,0,0,0,10.83,114.11Zm11.11,0a2,2,0,0,0,1.87,2h.26a2,2,0,0,0-.16-3.92h-.1A2,2,0,0,0,21.94,114.12Zm11.32,0a2.41,2.41,0,0,0,2.34,2.46h.22a2.4,2.4,0,1,0-.13-4.8H35.6A2.42,2.42,0,0,0,33.26,114.14Zm11.49,0a2.67,2.67,0,0,0,2.63,2.7h.17a2.67,2.67,0,0,0-.07-5.34h-.1A2.67,2.67,0,0,0,44.75,114.17Zm14.42-2.75a2.79,2.79,0,0,0,0,5.57h.1a2.79,2.79,0,0,0,0-5.57Zm11.65.2a2.58,2.58,0,0,0,.14,5.16h.1a2.58,2.58,0,0,0,0-5.15h-.24Zm11.7.55a2,2,0,1,0,.23,4.06h.09a2,2,0,0,0,0-4.06h-.09A.89.89,0,0,0,82.52,112.17Zm11.88.62a1.41,1.41,0,0,0-1.34,1.48,1.4,1.4,0,0,0,1.47,1.34h.1A1.42,1.42,0,0,0,96,114.27a1.4,1.4,0,0,0-1.34-1.47H94.4Zm11.89.41a1,1,0,0,0-1,1,1,1,0,0,0,1,1h.1a1,1,0,0,0,0-2h-.13Zm10.86,1a1,1,0,0,0,1,1h.11a1,1,0,0,0,1-1,1,1,0,0,0-1-1h-.1A1,1,0,0,0,117.15,114.19Zm11.59,0a1.19,1.19,0,0,0,1.15,1.24h.19A1.21,1.21,0,0,0,130,113h-.1A1.19,1.19,0,0,0,128.74,114.16Zm11.33,0a1.69,1.69,0,0,0,1.61,1.77h.26a1.7,1.7,0,0,0-.16-3.4h-.1A1.69,1.69,0,0,0,140.07,114.12Zm11.26,0a2.25,2.25,0,0,0,2.14,2.36h.31a2.25,2.25,0,1,0-.21-4.5h-.1A2.26,2.26,0,0,0,151.33,114.09Zm11.33,0a2.66,2.66,0,0,0,2.6,2.73h.23a2.67,2.67,0,1,0-.14-5.33h-.09A2.67,2.67,0,0,0,162.66,114.13Zm11.52,0a2.92,2.92,0,0,0,2.86,3h.22a2.93,2.93,0,0,0-.12-5.85H177A2.92,2.92,0,0,0,174.18,114.14Zm11.56,0a3.13,3.13,0,0,0,3.09,3.19h.2a3.14,3.14,0,1,0-.1-6.28h-.1A3.14,3.14,0,0,0,185.74,114.15Zm11.6,0a3.3,3.3,0,0,0,3.28,3.32h.14a3.3,3.3,0,1,0,0-6.6h-.1A3.3,3.3,0,0,0,197.34,114.18Zm15-3.28a3.31,3.31,0,0,0,.07,6.61h.09a3.31,3.31,0,0,0,0-6.61h-.16Zm11.74.16a3.14,3.14,0,0,0,.11,6.28h.1a3.14,3.14,0,0,0,0-6.28h-.21Zm11.75.3A2.84,2.84,0,1,0,236,117h.1a2.84,2.84,0,0,0,0-5.68h-.25Zm11.76.4a2.44,2.44,0,0,0,.18,4.88h.1a2.44,2.44,0,0,0,0-4.87h-.28Zm11.78.53a1.91,1.91,0,1,0,.19,3.82h.09a1.91,1.91,0,0,0,0-3.82h-.28Zm11.81.69a1.22,1.22,0,0,0,.16,2.44h.1a1.22,1.22,0,0,0,1.13-1.14,1.2,1.2,0,0,0-1.13-1.29h-.26Zm11.89.91a.31.31,0,0,0-.28.34.32.32,0,0,0,.34.29h.05a.3.3,0,0,0,.28-.28.31.31,0,0,0-.28-.34h-.11Z"/></g></g></svg>